<svg xmlns="http://www.w3.org/2000/svg" width="1600" height="900" viewBox="0 0 1600 900" preserveAspectRatio="xMidYMid slice">
  <defs>
    <linearGradient id="sky" x1="0" y1="0" x2="0" y2="1">
      <stop offset="0" stop-color="#0b2a4a"/>
      <stop offset="1" stop-color="#12609e"/>
    </linearGradient>
    <linearGradient id="duct" x1="0" y1="0" x2="1" y2="1">
      <stop offset="0" stop-color="#3a5a7a"/>
      <stop offset="1" stop-color="#1f3c5a"/>
    </linearGradient>
  </defs>
  <rect width="1600" height="900" fill="url(#sky)"/>
  <g opacity="0.5" fill="none" stroke="#2a97e6" stroke-width="2">
    <circle cx="1250" cy="230" r="120"/>
    <circle cx="1250" cy="230" r="200"/>
    <circle cx="1250" cy="230" r="290"/>
  </g>
  <g opacity="0.14" stroke="#ffffff" stroke-width="1.5">
    <path d="M0 700 Q400 640 800 700 T1600 700"/>
    <path d="M0 760 Q400 700 800 760 T1600 760"/>
    <path d="M0 820 Q400 760 800 820 T1600 820"/>
  </g>
  <!-- stylized ductwork -->
  <g opacity="0.28">
    <rect x="120" y="360" width="520" height="90" rx="14" fill="url(#duct)"/>
    <rect x="120" y="360" width="520" height="90" rx="14" fill="none" stroke="#5f86ab" stroke-width="3"/>
    <line x1="220" y1="360" x2="220" y2="450" stroke="#5f86ab" stroke-width="3"/>
    <line x1="320" y1="360" x2="320" y2="450" stroke="#5f86ab" stroke-width="3"/>
    <line x1="420" y1="360" x2="420" y2="450" stroke="#5f86ab" stroke-width="3"/>
    <line x1="520" y1="360" x2="520" y2="450" stroke="#5f86ab" stroke-width="3"/>
    <path d="M640 405 q80 0 80 -80 v-120" fill="none" stroke="#5f86ab" stroke-width="70" stroke-linecap="round" opacity="0.5"/>
  </g>
  <g opacity="0.5" fill="#2a97e6">
    <circle cx="300" cy="180" r="4"/>
    <circle cx="500" cy="120" r="3"/>
    <circle cx="700" cy="220" r="4"/>
    <circle cx="900" cy="140" r="3"/>
    <circle cx="1100" cy="250" r="4"/>
    <circle cx="200" cy="300" r="3"/>
  </g>
</svg>
